<svg width="40" height="32" viewBox="0 0 40 32" fill="none" xmlns="http://www.w3.org/2000/svg">
<path d="M9.06315 0.416992C6.71488 0.416992 4.46279 1.34984 2.80231 3.01032C1.14183 4.6708 0.208984 6.92289 0.208984 9.27116C0.208984 11.6194 1.14183 13.8715 2.80231 15.532C4.46279 17.1925 6.71488 18.1253 9.06315 18.1253C10.8439 18.1248 12.5832 17.5874 14.0538 16.5832C13.1489 20.4408 11.5401 23.1288 9.9563 24.9897C7.57192 27.7914 5.35832 28.6539 5.35832 28.6539C5.16298 28.7265 4.98414 28.8375 4.83233 28.9803C4.68052 29.123 4.5588 29.2948 4.47434 29.4853C4.38987 29.6758 4.34438 29.8813 4.34052 30.0897C4.33666 30.298 4.37453 30.5051 4.45188 30.6986C4.52923 30.8921 4.64451 31.0682 4.79094 31.2165C4.93736 31.3648 5.11197 31.4823 5.30449 31.5621C5.49701 31.6419 5.70354 31.6824 5.91195 31.6812C6.12035 31.68 6.3264 31.6371 6.51799 31.5551C6.51799 31.5551 9.51272 30.3343 12.3367 27.0161C15.1606 23.698 17.9173 18.2009 17.9173 9.79199C17.9175 9.71574 17.912 9.63958 17.901 9.56413C17.9403 8.37833 17.7408 7.19674 17.3145 6.08954C16.8882 4.98234 16.2437 3.97211 15.4193 3.11887C14.5949 2.26563 13.6074 1.58678 12.5155 1.12263C11.4236 0.658488 10.2496 0.418523 9.06315 0.416992ZM30.9382 0.416992C28.5899 0.416992 26.3378 1.34984 24.6773 3.01032C23.0168 4.6708 22.084 6.92289 22.084 9.27116C22.084 11.6194 23.0168 13.8715 24.6773 15.532C26.3378 17.1925 28.5899 18.1253 30.9382 18.1253C32.7189 18.1248 34.4582 17.5874 35.9288 16.5832C35.0239 20.4408 33.4151 23.1288 31.8313 24.9897C29.4469 27.7914 27.2333 28.6539 27.2333 28.6539C27.038 28.7265 26.8591 28.8375 26.7073 28.9803C26.5555 29.123 26.4338 29.2948 26.3493 29.4853C26.2649 29.6758 26.2194 29.8813 26.2155 30.0897C26.2117 30.298 26.2495 30.5051 26.3269 30.6986C26.4042 30.8921 26.5195 31.0682 26.6659 31.2165C26.8124 31.3648 26.987 31.4823 27.1795 31.5621C27.372 31.6419 27.5785 31.6824 27.7869 31.6812C27.9953 31.68 28.2014 31.6371 28.393 31.5551C28.393 31.5551 31.3877 30.3343 34.2117 27.0161C37.0356 23.698 39.7923 18.2009 39.7923 9.79199C39.7925 9.71574 39.787 9.63958 39.776 9.56413C39.8153 8.37833 39.6158 7.19674 39.1895 6.08954C38.7632 4.98234 38.1187 3.97211 37.2943 3.11887C36.4699 2.26563 35.4824 1.58678 34.3905 1.12263C33.2986 0.658488 32.1246 0.418523 30.9382 0.416992Z" fill="#D5AF97"/>
</svg>
